<svg xmlns="http://www.w3.org/2000/svg" xmlns:xlink="http://www.w3.org/1999/xlink" width="276" height="56" viewBox="0 0 276 56">
  <defs>
    <clipPath id="clip-path">
      <rect id="Rectangle_87697" data-name="Rectangle 87697" width="276" height="56" transform="translate(902 635)" fill="#fff" stroke="#707070" stroke-width="1"/>
    </clipPath>
  </defs>
  <g id="Mask_Group_199" data-name="Mask Group 199" transform="translate(-902 -635)" clip-path="url(#clip-path)">
    <g id="Group_49681" data-name="Group 49681" transform="translate(929.972 614)" opacity="0.2" style="isolation: isolate">
      <g id="Group_534" data-name="Group 534" transform="translate(236.955 5.776)" opacity="0.6">
        <path id="Path_354" data-name="Path 354" d="M243.3,321.653l-1.834,1.059v2.12l1.834,1.059,1.836-1.059v-2.12l-1.836-1.059m0-.257,2.059,1.187v2.377l-2.059,1.187-2.057-1.187v-2.377L243.3,321.4Z" transform="translate(-241.242 -321.396)" fill="#fff"/>
      </g>
      <path id="Path_355" data-name="Path 355" d="M282.906,319.859l-2.667-1.54-2.667,1.54v3.08l2.667,1.541,2.667-1.541Z" transform="translate(-86.724 -316.345)" fill="#fff" style="mix-blend-mode: color-dodge;isolation: isolate"/>
      <path id="Path_356" data-name="Path 356" d="M233.567,364.688l-1.416-.818-1.417.818v1.636l1.417.818,1.416-.818Z" transform="translate(20.488 -305.613)" fill="#fff" style="mix-blend-mode: overlay;isolation: isolate"/>
      <g id="Group_535" data-name="Group 535" transform="translate(89.394 9.776)" style="mix-blend-mode: overlay;isolation: isolate">
        <path id="Path_357" data-name="Path 357" d="M359.352,325.571l-6.7,3.866v7.73l6.7,3.866,6.7-3.866v-7.73l-6.7-3.866m0-.938,7.509,4.335v8.669l-7.509,4.334-7.507-4.334v-8.669l7.507-4.335Z" transform="translate(-351.845 -324.633)" fill="#fff"/>
      </g>
      <g id="Group_536" data-name="Group 536" transform="translate(121.796 2.298)" style="mix-blend-mode: overlay;isolation: isolate">
        <path id="Path_358" data-name="Path 358" d="M335.289,319.083l-3.583,2.068v4.135l3.583,2.07,3.582-2.07v-4.135l-3.582-2.068m0-.5,4.017,2.319v4.637l-4.017,2.32-4.018-2.32V320.9l4.018-2.319Z" transform="translate(-331.271 -318.581)" fill="#fff"/>
      </g>
      <g id="Group_537" data-name="Group 537" transform="translate(212.899 22.483)" style="mix-blend-mode: overlay;isolation: isolate">
        <path id="Path_359" data-name="Path 359" d="M253.253,337.1,237.7,346.074v17.958l15.552,8.983,15.552-8.983V346.074L253.253,337.1m0-2.18,17.44,10.068v20.138L253.253,375.2l-17.441-10.073V344.985l17.441-10.068Z" transform="translate(-235.812 -334.917)" fill="#fff"/>
      </g>
      <g id="Group_538" data-name="Group 538" transform="translate(173.164 0)" opacity="0.3" style="mix-blend-mode: color-dodge;isolation: isolate">
        <path id="Path_360" data-name="Path 360" d="M279.831,320.027l-23.592,13.621V360.89l23.592,13.621,23.6-13.621V333.649l-23.6-13.621m0-3.307L306.291,332v30.548l-26.459,15.274-26.456-15.274V332l26.456-15.275Z" transform="translate(-253.375 -316.721)" fill="#fff"/>
      </g>
      <g id="Group_539" data-name="Group 539" transform="translate(150.989 18.013)" opacity="0.6">
        <path id="Path_361" data-name="Path 361" d="M312.1,331.4l-3.211,1.855v3.711l3.211,1.856,3.214-1.856v-3.711L312.1,331.4m0-.1,3.3,1.905v3.813l-3.3,1.908-3.3-1.908V333.2l3.3-1.905Z" transform="translate(-308.804 -331.299)" fill="#fff"/>
      </g>
      <g id="Group_540" data-name="Group 540" transform="translate(149.599 60.191)" style="mix-blend-mode: overlay;isolation: isolate">
        <path id="Path_362" data-name="Path 362" d="M313.847,365.507,311.6,366.8v2.589l2.243,1.294,2.243-1.294V366.8l-2.243-1.295m0-.072,2.3,1.331v2.66l-2.3,1.33-2.3-1.33v-2.66l2.3-1.331Z" transform="translate(-311.543 -365.435)" fill="#fff"/>
      </g>
      <g id="Group_541" data-name="Group 541" transform="translate(85.551 54.97)" style="mix-blend-mode: overlay;isolation: isolate">
        <path id="Path_363" data-name="Path 363" d="M366.091,361.262l-1.6.923v1.846l1.6.923,1.6-.923v-1.846l-1.6-.923m0-.052,1.643.949v1.9l-1.643.948-1.643-.948v-1.9l1.643-.949Z" transform="translate(-364.448 -361.21)" fill="#fff"/>
      </g>
      <g id="Group_542" data-name="Group 542" transform="translate(96.244 31.259)" style="mix-blend-mode: overlay;isolation: isolate">
        <path id="Path_364" data-name="Path 364" d="M345.555,342.671l-20.28,11.708V377.8l20.28,11.708L365.839,377.8V354.38l-20.283-11.708m0-.651L366.4,354.053v24.071l-20.848,12.035-20.843-12.035V354.053l20.843-12.033Z" transform="translate(-324.712 -342.02)" fill="#fff"/>
      </g>
      <g id="Group_543" data-name="Group 543" transform="translate(170.198 38.056)" style="mix-blend-mode: color-dodge;isolation: isolate">
        <path id="Path_365" data-name="Path 365" d="M287.41,348.087,269.8,358.255v20.329l17.61,10.165,17.6-10.165V358.255l-17.6-10.168m0-.566L305.5,357.972v20.9L287.41,389.315l-18.1-10.448v-20.9l18.1-10.451Z" transform="translate(-269.311 -347.521)" fill="#fff"/>
      </g>
      <g id="Group_544" data-name="Group 544" transform="translate(220.533 57.503)" opacity="0.6">
        <path id="Path_366" data-name="Path 366" d="M252.016,364.441l-8.425,4.866v9.729l8.425,4.864,8.429-4.864v-9.729l-8.429-4.866m0-1.181,9.452,5.456v10.91l-9.452,5.455-9.45-5.455v-10.91l9.45-5.456Z" transform="translate(-242.566 -363.26)" fill="#fff"/>
      </g>
      <g id="Group_545" data-name="Group 545" transform="translate(0 60.673)" opacity="0.6">
        <path id="Path_367" data-name="Path 367" d="M434.372,366.209l-2.366,1.367v3.6l2.366,1.365,2.743-1.583v-3.167l-2.743-1.585m0-.384,3.077,1.777v3.551l-3.077,1.776-2.7-1.557v-3.987l2.7-1.559Z" transform="translate(-431.672 -365.825)" fill="#fff"/>
      </g>
      <g id="Group_546" data-name="Group 546" transform="translate(165.27 57.889)" style="mix-blend-mode: color-dodge;isolation: isolate">
        <path id="Path_368" data-name="Path 368" d="M301.272,363.839l-1.9,1.1v2.2l1.9,1.1,1.9-1.1v-2.2l-1.9-1.1m0-.267L303.4,364.8v2.461l-2.131,1.232-2.133-1.232V364.8l2.133-1.232Z" transform="translate(-299.139 -363.572)" fill="#fff"/>
      </g>
      <g id="Group_547" data-name="Group 547" transform="translate(71.353 128.937)" style="mix-blend-mode: overlay;isolation: isolate">
        <path id="Path_369" data-name="Path 369" d="M375.418,421.234l-5.009,2.891v5.78l5.009,2.89,5-2.89v-5.78l-5-2.891m0-.161,5.144,2.97v5.942l-5.144,2.97-5.148-2.97v-5.942l5.148-2.97Z" transform="translate(-370.27 -421.073)" fill="#fff"/>
      </g>
      <g id="Group_548" data-name="Group 548" transform="translate(33.409 46.103)" style="mix-blend-mode: overlay;isolation: isolate">
        <path id="Path_370" data-name="Path 370" d="M391.841,354.915l-27.476,15.861V402.5l27.476,15.861L419.312,402.5V370.777l-27.471-15.861m0-.882,28.236,16.3v32.608l-28.236,16.3-28.241-16.3V370.335l28.241-16.3Z" transform="translate(-363.6 -354.033)" fill="#fff"/>
      </g>
      <g id="Group_549" data-name="Group 549" transform="translate(118.06 50.605)" style="mix-blend-mode: overlay;isolation: isolate">
        <path id="Path_371" data-name="Path 371" d="M315.645,358.947l-39.559,22.839v45.675L315.645,450.3,355.2,427.461V381.786l-39.559-22.839m0-1.27L356.3,381.151V428.1L315.645,451.57,274.985,428.1V381.151l40.66-23.474Z" transform="translate(-274.985 -357.677)" fill="#fff"/>
      </g>
      <g id="Group_550" data-name="Group 550" transform="translate(89.74 48.124)" style="mix-blend-mode: color-dodge;isolation: isolate">
        <path id="Path_372" data-name="Path 372" d="M350.787,356.323l-20.339,11.746v23.488L350.787,403.3l20.337-11.742V368.068l-20.337-11.746m0-.654,20.9,12.073v24.14l-20.9,12.069-20.9-12.069v-24.14l20.9-12.073Z" transform="translate(-329.882 -355.669)" fill="#fff"/>
      </g>
      <g id="Group_730" data-name="Group 730" transform="translate(212.9 22.483)" style="mix-blend-mode: overlay;isolation: isolate">
        <path id="Path_359-2" data-name="Path 359" d="M253.253,337.1,237.7,346.074v17.958l15.552,8.983,15.552-8.983V346.074L253.253,337.1m0-2.18,17.44,10.068v20.138L253.253,375.2l-17.441-10.073V344.985l17.441-10.068Z" transform="translate(-235.812 -334.917)" fill="#fff"/>
      </g>
      <g id="Group_731" data-name="Group 731" transform="translate(173.164)" opacity="0.3" style="mix-blend-mode: color-dodge;isolation: isolate">
        <path id="Path_360-2" data-name="Path 360" d="M279.831,320.027l-23.592,13.621V360.89l23.592,13.621,23.6-13.621V333.649l-23.6-13.621m0-3.307L306.291,332v30.548l-26.459,15.274-26.456-15.274V332l26.456-15.275Z" transform="translate(-253.375 -316.721)" fill="#fff"/>
      </g>
    </g>
  </g>
</svg>
