<svg xmlns="http://www.w3.org/2000/svg" width="294.877" height="167.716" viewBox="0 0 294.877 167.716">
  <g id="Group_573" data-name="Group 573" opacity="0.1" style="isolation: isolate">
    <g id="Group_534" data-name="Group 534" transform="translate(275.03 6.705)" opacity="0.6">
      <path id="Path_354" data-name="Path 354" d="M243.63,321.694l-2.128,1.229v2.461l2.128,1.229,2.131-1.229v-2.461l-2.131-1.229m0-.3,2.389,1.378v2.759l-2.389,1.378-2.388-1.378v-2.759l2.388-1.378Z" transform="translate(-241.242 -321.396)" fill="#1294a6"/>
    </g>
    <path id="Path_355" data-name="Path 355" d="M283.763,320.106l-3.1-1.787-3.1,1.787v3.575l3.1,1.788,3.1-1.788Z" transform="translate(-56.059 -316.027)" fill="#1294a6" style="mix-blend-mode: color-dodge;isolation: isolate"/>
    <path id="Path_356" data-name="Path 356" d="M234.022,364.82l-1.643-.95-1.645.95v1.9l1.645.949,1.643-.949Z" transform="translate(60.855 -296.252)" fill="#1294a6" style="mix-blend-mode: overlay;isolation: isolate"/>
    <g id="Group_535" data-name="Group 535" transform="translate(103.758 11.347)" style="mix-blend-mode: overlay;isolation: isolate">
      <path id="Path_357" data-name="Path 357" d="M360.559,325.722l-7.772,4.487v8.972l7.772,4.487,7.773-4.487v-8.972l-7.773-4.487m0-1.089,8.715,5.031v10.062l-8.715,5.031-8.714-5.031V329.664l8.714-5.031Z" transform="translate(-351.845 -324.633)" fill="#1294a6"/>
    </g>
    <g id="Group_536" data-name="Group 536" transform="translate(141.367 2.667)" style="mix-blend-mode: overlay;isolation: isolate">
      <path id="Path_358" data-name="Path 358" d="M335.935,319.163l-4.159,2.4v4.8l4.159,2.4,4.158-2.4v-4.8l-4.158-2.4m0-.582,4.662,2.692v5.382l-4.662,2.693-4.664-2.693v-5.382l4.664-2.692Z" transform="translate(-331.271 -318.581)" fill="#1294a6"/>
    </g>
    <g id="Group_537" data-name="Group 537" transform="translate(247.108 26.096)" style="mix-blend-mode: overlay;isolation: isolate">
      <path id="Path_359" data-name="Path 359" d="M256.055,337.447,238,347.867v20.844l18.051,10.426,18.051-10.426V347.867l-18.051-10.42m0-2.53L276.3,346.6v23.374l-20.243,11.691-20.243-11.691V346.6l20.243-11.685Z" transform="translate(-235.812 -334.917)" fill="#1294a6"/>
    </g>
    <g id="Group_538" data-name="Group 538" transform="translate(200.988 0)" opacity="0.3" style="mix-blend-mode: color-dodge;isolation: isolate">
      <path id="Path_360" data-name="Path 360" d="M284.083,320.559,256.7,336.369v31.618l27.383,15.81,27.386-15.81V336.369l-27.386-15.81m0-3.838,30.711,17.729v35.456l-30.711,17.729-30.708-17.729V334.45l30.708-17.729Z" transform="translate(-253.375 -316.721)" fill="#1294a6"/>
    </g>
    <g id="Group_539" data-name="Group 539" transform="translate(175.25 20.907)" opacity="0.6">
      <path id="Path_361" data-name="Path 361" d="M312.635,331.418l-3.727,2.153v4.307l3.727,2.154,3.73-2.154v-4.307l-3.73-2.153m0-.119,3.833,2.211v4.426l-3.833,2.214-3.831-2.214V333.51l3.831-2.211Z" transform="translate(-308.804 -331.299)" fill="#1294a6"/>
    </g>
    <g id="Group_540" data-name="Group 540" transform="translate(173.636 69.863)" style="mix-blend-mode: overlay;isolation: isolate">
      <path id="Path_362" data-name="Path 362" d="M314.218,365.518l-2.6,1.5v3l2.6,1.5,2.6-1.5v-3l-2.6-1.5m0-.083,2.675,1.545v3.088l-2.675,1.543-2.675-1.543V366.98l2.675-1.545Z" transform="translate(-311.543 -365.435)" fill="#1294a6"/>
    </g>
    <g id="Group_541" data-name="Group 541" transform="translate(99.298 63.803)" style="mix-blend-mode: overlay;isolation: isolate">
      <path id="Path_363" data-name="Path 363" d="M366.355,361.27l-1.856,1.071v2.143l1.856,1.071,1.856-1.071v-2.143l-1.856-1.071m0-.06,1.907,1.1v2.2l-1.907,1.1-1.907-1.1v-2.2l1.907-1.1Z" transform="translate(-364.448 -361.21)" fill="#1294a6"/>
    </g>
    <g id="Group_542" data-name="Group 542" transform="translate(111.709 36.282)" style="mix-blend-mode: overlay;isolation: isolate">
      <path id="Path_364" data-name="Path 364" d="M348.9,342.776l-23.538,13.59v27.183l23.538,13.59,23.543-13.59V356.366L348.9,342.776m0-.756,24.2,13.967v27.938l-24.2,13.969-24.192-13.969V355.987L348.9,342.02Z" transform="translate(-324.712 -342.02)" fill="#1294a6"/>
    </g>
    <g id="Group_543" data-name="Group 543" transform="translate(197.546 44.171)" style="mix-blend-mode: color-dodge;isolation: isolate">
      <path id="Path_365" data-name="Path 365" d="M290.318,348.178l-20.439,11.8v23.6l20.439,11.8,20.429-11.8v-23.6l-20.429-11.8m0-.657,21,12.13V383.9l-21,12.127L269.311,383.9V359.651l21.007-12.13Z" transform="translate(-269.311 -347.521)" fill="#1294a6"/>
    </g>
    <g id="Group_544" data-name="Group 544" transform="translate(255.969 66.743)" opacity="0.6">
      <path id="Path_366" data-name="Path 366" d="M253.534,364.631l-9.779,5.648v11.292l9.779,5.646,9.784-5.646V370.279l-9.784-5.648m0-1.371,10.971,6.333v12.663l-10.971,6.332-10.968-6.332V369.593l10.968-6.333Z" transform="translate(-242.566 -363.26)" fill="#1294a6"/>
    </g>
    <g id="Group_545" data-name="Group 545" transform="translate(0 70.422)" opacity="0.6">
      <path id="Path_367" data-name="Path 367" d="M434.806,366.271l-2.746,1.586v4.182l2.746,1.585,3.184-1.837v-3.676l-3.184-1.84m0-.446,3.571,2.062v4.122l-3.571,2.061-3.134-1.807v-4.628l3.134-1.81Z" transform="translate(-431.672 -365.825)" fill="#1294a6"/>
    </g>
    <g id="Group_546" data-name="Group 546" transform="translate(191.825 67.191)" style="mix-blend-mode: color-dodge;isolation: isolate">
      <path id="Path_368" data-name="Path 368" d="M301.614,363.882l-2.207,1.273V367.7l2.207,1.275,2.206-1.274v-2.55l-2.206-1.273m0-.31,2.474,1.43v2.857l-2.474,1.43-2.475-1.43V365l2.475-1.43Z" transform="translate(-299.139 -363.572)" fill="#1294a6"/>
    </g>
    <g id="Group_547" data-name="Group 547" transform="translate(82.818 149.655)" style="mix-blend-mode: overlay;isolation: isolate">
      <path id="Path_369" data-name="Path 369" d="M376.245,421.259l-5.814,3.356v6.709l5.814,3.354,5.808-3.354v-6.709l-5.808-3.356m0-.186,5.97,3.448v6.9l-5.97,3.448-5.975-3.448v-6.9l5.975-3.448Z" transform="translate(-370.27 -421.073)" fill="#1294a6"/>
    </g>
    <g id="Group_548" data-name="Group 548" transform="translate(38.777 53.51)" style="mix-blend-mode: overlay;isolation: isolate">
      <path id="Path_370" data-name="Path 370" d="M396.379,355.057l-31.891,18.41V410.29l31.891,18.41,31.885-18.41V373.467l-31.885-18.41m0-1.024,32.773,18.922V410.8l-32.773,18.922L363.6,410.8V372.955l32.779-18.922Z" transform="translate(-363.6 -354.033)" fill="#1294a6"/>
    </g>
    <g id="Group_549" data-name="Group 549" transform="translate(137.03 58.736)" style="mix-blend-mode: overlay;isolation: isolate">
      <path id="Path_371" data-name="Path 371" d="M322.178,359.151,276.263,385.66v53.014l45.915,26.509,45.915-26.509V385.66l-45.915-26.509m0-1.474,47.192,27.246v54.489l-47.192,27.246-47.193-27.246V384.923l47.193-27.246Z" transform="translate(-274.985 -357.677)" fill="#1294a6"/>
    </g>
    <g id="Group_550" data-name="Group 550" transform="translate(104.16 55.857)" style="mix-blend-mode: color-dodge;isolation: isolate">
      <path id="Path_372" data-name="Path 372" d="M354.146,356.428l-23.607,13.633v27.262l23.607,13.629,23.6-13.629V370.061l-23.6-13.633m0-.759,24.261,14.013V397.7l-24.261,14.009L329.882,397.7V369.682l24.264-14.013Z" transform="translate(-329.882 -355.669)" fill="#1294a6"/>
    </g>
  </g>
</svg>
