<svg xmlns="http://www.w3.org/2000/svg" xmlns:xlink="http://www.w3.org/1999/xlink" width="405" height="180" viewBox="0 0 405 180">
  <defs>
    <clipPath id="clip-path">
      <rect x="126" width="405" height="180" fill="none"/>
    </clipPath>
  </defs>
  <g id="Left" transform="translate(-126)" clip-path="url(#clip-path)" style="isolation: isolate">
    <g id="Group_50009" data-name="Group 50009" transform="translate(0 0)" opacity="0.2" style="mix-blend-mode: darken;isolation: isolate">
      <g id="Group_49971" data-name="Group 49971" transform="translate(433.962 20.939)" opacity="0.6">
        <path id="Path_57077" data-name="Path 57077" d="M244.75,321.834l-3.127,1.806v3.616l3.127,1.806,3.131-1.806V323.64l-3.131-1.806m0-.438,3.51,2.025v4.054l-3.51,2.025-3.508-2.025v-4.054l3.508-2.025Z" transform="translate(-241.242 -321.396)" fill="#1294a6"/>
      </g>
      <path id="Path_57078" data-name="Path 57078" d="M286.669,320.945l-4.549-2.626-4.548,2.626V326.2l4.548,2.627,4.549-2.627Z" transform="translate(72.705 -305.916)" fill="#1294a6" style="mix-blend-mode: color-dodge;isolation: isolate"/>
      <path id="Path_57079" data-name="Path 57079" d="M235.564,365.265l-2.414-1.4-2.416,1.4v2.789l2.416,1.395,2.414-1.395Z" transform="translate(227.558 -253.435)" fill="#1294a6" style="mix-blend-mode: overlay;isolation: isolate"/>
      <g id="Group_49972" data-name="Group 49972" transform="translate(152.445 12.752)" style="mix-blend-mode: overlay;isolation: isolate">
        <path id="Path_57080" data-name="Path 57080" d="M364.648,326.232l-11.418,6.593v13.182l11.418,6.593,11.42-6.593V332.825l-11.42-6.593m0-1.6,12.8,7.392v14.783l-12.8,7.392-12.8-7.392V332.025l12.8-7.392Z" transform="translate(-351.845 -324.633)" fill="#1294a6"/>
      </g>
      <g id="Group_49973" data-name="Group 49973" transform="translate(207.701 0)" style="mix-blend-mode: overlay;isolation: isolate">
        <path id="Path_57081" data-name="Path 57081" d="M338.123,319.436l-6.111,3.527v7.052l6.111,3.529,6.108-3.529v-7.052l-6.108-3.527m0-.855,6.85,3.955v7.908l-6.85,3.957-6.852-3.957v-7.908l6.852-3.955Z" transform="translate(-331.271 -318.581)" fill="#1294a6"/>
      </g>
      <g id="Group_49974" data-name="Group 49974" transform="translate(392.939 49.429)" style="mix-blend-mode: overlay;isolation: isolate">
        <path id="Path_57082" data-name="Path 57082" d="M265.553,338.634l-26.522,15.31v30.624l26.522,15.318,26.522-15.318V353.944l-26.522-15.31m0-3.717,29.741,17.168v34.341L265.553,403.6l-29.741-17.177V352.085l29.741-17.168Z" transform="translate(-235.812 -334.917)" fill="#1294a6"/>
      </g>
      <g id="Group_49975" data-name="Group 49975" transform="translate(320.121 9.036)" opacity="0.3" style="mix-blend-mode: color-dodge;isolation: isolate">
        <path id="Path_57083" data-name="Path 57083" d="M298.492,322.36l-40.232,23.228v46.455l40.232,23.228,40.237-23.228V345.588L298.492,322.36m0-5.639,45.121,26.048v52.093l-45.121,26.048-45.117-26.048V342.769l45.117-26.048Z" transform="translate(-253.375 -316.721)" fill="#1294a6"/>
      </g>
      <g id="Group_49976" data-name="Group 49976" transform="translate(311.482 24.851)" opacity="0.6">
        <path id="Path_57084" data-name="Path 57084" d="M314.432,331.474l-5.476,3.163v6.327l5.476,3.165,5.48-3.165v-6.327l-5.48-3.163m0-.175,5.632,3.249v6.5l-5.632,3.253L308.8,341.05v-6.5l5.628-3.249Z" transform="translate(-308.804 -331.299)" fill="#1294a6"/>
      </g>
      <g id="Group_49977" data-name="Group 49977" transform="translate(309.112 96.778)" style="mix-blend-mode: overlay;isolation: isolate">
        <path id="Path_57085" data-name="Path 57085" d="M315.473,365.557l-3.824,2.208v4.414l3.824,2.206,3.824-2.206v-4.414l-3.824-2.208m0-.122,3.93,2.269v4.536l-3.93,2.267-3.93-2.267V367.7l3.93-2.269Z" transform="translate(-311.543 -365.435)" fill="#1294a6"/>
      </g>
      <g id="Group_49978" data-name="Group 49978" transform="translate(145.892 89.822)" style="mix-blend-mode: overlay;isolation: isolate">
        <path id="Path_57086" data-name="Path 57086" d="M367.25,361.3l-2.726,1.574v3.148l2.726,1.574,2.727-1.574v-3.148L367.25,361.3m0-.089,2.8,1.618v3.237l-2.8,1.616-2.8-1.616v-3.237l2.8-1.618Z" transform="translate(-364.448 -361.21)" fill="#1294a6"/>
      </g>
      <g id="Group_49979" data-name="Group 49979" transform="translate(164.126 49.388)" style="mix-blend-mode: overlay;isolation: isolate">
        <path id="Path_57087" data-name="Path 57087" d="M360.256,343.13,325.673,363.1v39.937L360.256,423l34.59-19.967V363.1l-34.59-19.967m0-1.11,35.553,20.521v41.048l-35.553,20.523-35.544-20.523V362.541l35.544-20.521Z" transform="translate(-324.712 -342.02)" fill="#1294a6"/>
      </g>
      <g id="Group_49980" data-name="Group 49980" transform="translate(320.121 75.986)" style="mix-blend-mode: color-dodge;isolation: isolate">
        <path id="Path_57088" data-name="Path 57088" d="M300.175,348.486l-30.03,17.339v34.668l30.03,17.335,30.015-17.335V365.825l-30.015-17.339m0-.965,30.852,17.822v35.633l-30.852,17.817-30.864-17.817V365.343l30.864-17.822Z" transform="translate(-269.311 -347.521)" fill="#1294a6"/>
      </g>
      <g id="Group_49981" data-name="Group 49981" transform="translate(405.957 109.15)" opacity="0.6">
        <path id="Path_57089" data-name="Path 57089" d="M258.681,365.274l-14.368,8.3v16.591l14.368,8.3,14.374-8.3V373.572l-14.374-8.3m0-2.014,16.119,9.3V391.17l-16.119,9.3-16.115-9.3V372.565l16.115-9.3Z" transform="translate(-242.566 -363.26)" fill="#1294a6"/>
      </g>
      <g id="Group_49982" data-name="Group 49982" transform="translate(0 99.546)" opacity="0.6">
        <path id="Path_57090" data-name="Path 57090" d="M436.276,366.48l-4.035,2.331v6.144l4.035,2.328,4.678-2.7v-5.4l-4.678-2.7m0-.655,5.247,3.03v6.056l-5.247,3.028-4.6-2.655v-6.8l4.6-2.659Z" transform="translate(-431.672 -365.825)" fill="#1294a6"/>
      </g>
      <g id="Group_49983" data-name="Group 49983" transform="translate(281.836 94.799)" style="mix-blend-mode: color-dodge;isolation: isolate">
        <path id="Path_57091" data-name="Path 57091" d="M302.776,364.027l-3.243,1.871v3.744l3.243,1.873,3.241-1.871V365.9l-3.241-1.871m0-.455,3.635,2.1v4.2l-3.635,2.1-3.637-2.1v-4.2l3.637-2.1Z" transform="translate(-299.139 -363.572)" fill="#1294a6"/>
      </g>
      <g id="Group_49984" data-name="Group 49984" transform="translate(121.679 215.958)" style="mix-blend-mode: overlay;isolation: isolate">
        <path id="Path_57092" data-name="Path 57092" d="M379.048,421.347l-8.542,4.931v9.857l8.542,4.928,8.534-4.928v-9.857l-8.534-4.931m0-.274,8.772,5.065v10.133l-8.772,5.065-8.778-5.065V426.138l8.778-5.065Z" transform="translate(-370.27 -421.073)" fill="#1294a6"/>
      </g>
      <g id="Group_49985" data-name="Group 49985" transform="translate(56.973 74.7)" style="mix-blend-mode: overlay;isolation: isolate">
        <path id="Path_57093" data-name="Path 57093" d="M411.759,355.537,364.9,382.586v54.1l46.855,27.048,46.847-27.048v-54.1l-46.847-27.048m0-1.5,48.151,27.8v55.606l-48.151,27.8-48.159-27.8V381.834l48.159-27.8Z" transform="translate(-363.6 -354.033)" fill="#1294a6"/>
      </g>
      <g id="Group_49986" data-name="Group 49986" transform="translate(206.809 103.198)" style="mix-blend-mode: overlay;isolation: isolate">
        <path id="Path_57094" data-name="Path 57094" d="M331.642,359.447l-55.123,31.824v63.645l55.123,31.824,55.123-31.824V391.271l-55.123-31.824m0-1.77L388.3,390.386V455.8l-56.655,32.709L274.985,455.8V390.386l56.657-32.709Z" transform="translate(-274.985 -357.677)" fill="#1294a6"/>
      </g>
      <g id="Group_49987" data-name="Group 49987" transform="translate(153.035 78.147)" style="mix-blend-mode: color-dodge;isolation: isolate">
        <path id="Path_57095" data-name="Path 57095" d="M365.531,356.784l-34.685,20.03v40.053l34.685,20.023,34.68-20.023V376.813l-34.68-20.03m0-1.115,35.645,20.588v41.166L365.531,438l-35.65-20.582V376.257l35.65-20.588Z" transform="translate(-329.882 -355.669)" fill="#1294a6"/>
      </g>
      <path id="Path_57096" data-name="Path 57096" d="M92.738,277.342l36.781-21.23,36.777,21.23v42.464l-36.777,21.23-36.781-21.23Z" transform="translate(365.554 -129.959)" fill="#1294a6" style="mix-blend-mode: color-dodge;isolation: isolate"/>
    </g>
  </g>
</svg>
