<?xml version="1.0" encoding="utf-8"?>
<!-- Generator: Adobe Illustrator 25.3.1, SVG Export Plug-In . SVG Version: 6.00 Build 0)  -->
<svg version="1.1" id="Layer_1" xmlns="http://www.w3.org/2000/svg" xmlns:xlink="http://www.w3.org/1999/xlink" x="0px" y="0px"
	 width="331px" height="188.8px" viewBox="0 0 331 188.8" style="enable-background:new 0 0 331 188.8;" xml:space="preserve">
<style type="text/css">
	.st0{opacity:0.2;}
	.st1{fill:#FAFAFB;}
	.st2{opacity:4.000000e-02;fill:#FAFAFB;enable-background:new    ;}
	.st3{opacity:0.1;fill:#FAFAFB;enable-background:new    ;}
	.st4{opacity:4.000000e-02;}
	.st5{opacity:0.2;fill:#FAFAFB;enable-background:new    ;}
	.st6{opacity:2.000000e-02;}
	.st7{opacity:0.1;}
</style>
<g id="Group_49971">
	<g id="Group_534" transform="translate(308.709 7.526)" class="st0">
		<path id="Path_354" class="st1" d="M2.7,0.6L0.3,2v2.8l2.4,1.4l2.4-1.4V2L2.7,0.6 M2.7,0.3l2.7,1.5v3.1L2.7,6.5L0,4.9V1.8L2.7,0.3
			z"/>
	</g>
	<path id="Path_355" class="st2" d="M255.6,4.9l-3.5-2l-3.5,2v4l3.5,2l3.5-2V4.9z"/>
	<path id="Path_356" class="st3" d="M331,77.3l-1.8-1.1l-1.8,1.1v2.1l1.8,1.1l1.8-1.1V77.3z"/>
	<g id="Group_535" transform="translate(116.464 12.736)" class="st4">
		<path id="Path_357" class="st1" d="M9.8,1.5l-8.7,5v10.1l8.7,5l8.7-5V6.5L9.8,1.5 M9.8,0.3l9.8,5.6v11.3l-9.8,5.6L0,17.2V5.9
			L9.8,0.3L9.8,0.3z"/>
	</g>
	<g id="Group_536" transform="translate(158.678 2.994)" class="st4">
		<path id="Path_358" class="st1" d="M5.2,0.9L0.6,3.6V9l4.7,2.7L9.9,9V3.6L5.2,0.9 M5.2,0.3l5.2,3v6l-5.2,3L0,9.4v-6L5.2,0.3
			L5.2,0.3z"/>
	</g>
	<path id="Union_76" class="st5" d="M287.3,96.5V82.3l6.6-3.8l-16.6-9.6V42.7l22.7-13.1l22.7,13.1v26.2l-17,9.8l6.2,3.5v14.2
		l-12.3,7.1L287.3,96.5z M288.6,83.1v12.7l11,6.3l11-6.3V83.1l-6.1-3.5l-4.4,2.5l-4.8-2.8L288.6,83.1z M300.1,79.2l1.9-1.1l-2.4-1.4
		l-1.9,1.1L300.1,79.2z M303.3,77.3l17-9.8V44.1l-20.3-11.7l-20.3,11.7v23.4l16.6,9.6l3.2-1.9L303.3,77.3z"/>
	<g id="Group_538" transform="translate(225.601 0)" class="st6">
		<path id="Path_360" class="st1" d="M34.5,4.6L3.7,22.3v35.5l30.7,17.7l30.7-17.7V22.3L34.5,4.6 M34.5,0.3l34.5,19.9V60L34.5,79.9
			L0,60V20.2L34.5,0.3z"/>
	</g>
	<g id="Group_539" transform="translate(196.71 23.467)" class="st4">
		<path id="Path_361" class="st1" d="M4.3,0.4L0.1,2.8v4.8l4.2,2.4l4.2-2.4V2.8L4.3,0.4 M4.3,0.3l4.3,2.5v5l-4.3,2.5L0,7.7v-5
			L4.3,0.3z"/>
	</g>
	<g id="Group_540" transform="translate(194.899 78.418)" class="st7">
		<path id="Path_362" class="st1" d="M3,0.4L0.1,2.1v3.4L3,7.1l2.9-1.7V2.1L3,0.4 M3,0.3L6,2v3.5L3,7.2L0,5.5V2L3,0.3z"/>
	</g>
	<g id="Group_541" transform="translate(111.458 71.616)" class="st0">
		<path id="Path_363" class="st1" d="M2.1,0.4L0.1,1.6V4l2.1,1.2L4.2,4V1.6L2.1,0.4 M2.1,0.3l2.1,1.2V4L2.1,5.2L0,4V1.5L2.1,0.3z"/>
	</g>
	<g id="Group_542" transform="translate(125.389 40.725)" class="st4">
		<path id="Path_364" class="st1" d="M27.2,1.1L0.7,16.4v30.5l26.4,15.3l26.4-15.3V16.4L27.2,1.1 M27.2,0.3L54.3,16v31.4L27.2,63
			L0,47.3V16L27.2,0.3L27.2,0.3z"/>
	</g>
	<path id="Union_77" class="st2" d="M153.8,158V96.8l53-30.6l15,8.6V63.5l23.6-13.6l23.6,13.6v27.2l-9.8,5.7l0.7,0.4V158l-53,30.6
		L153.8,158z M155.2,97.6v59.5l51.5,29.8l51.5-29.8V97.6l-0.7-0.4l-12.3,7.1l-23.6-13.6V76.5l-15-8.6L155.2,97.6z M222.4,90.3
		l22.9,13.2l11.7-6.7l-34.6-20V90.3z M258.4,96l9.8-5.7V63.9l-22.9-13.2l-22.9,13.2v11.4L258.4,96z"/>
	<g id="Group_545" transform="translate(0 79.045)" class="st4">
		<path id="Path_367" class="st1" d="M3.5,0.8L0.4,2.6v4.7L3.5,9L7.1,7V2.9L3.5,0.8 M3.5,0.3l4,2.3v4.6l-4,2.3L0,7.5V2.3L3.5,0.3
			L3.5,0.3z"/>
	</g>
	<g id="Group_546" transform="translate(215.316 75.419)" class="st0">
		<path id="Path_368" class="st1" d="M2.8,0.6L0.3,2.1v2.9l2.5,1.4l2.5-1.4V2.1L2.8,0.6 M2.8,0.3l2.8,1.6v3.2L2.8,6.7L0,5.1V1.9
			L2.8,0.3z"/>
	</g>
	<g id="Group_547" transform="translate(92.96 167.981)" class="st7">
		<path id="Path_369" class="st1" d="M6.7,0.5L0.2,4.3v7.5l6.5,3.8l6.5-3.8V4.3L6.7,0.5 M6.7,0.3l6.7,3.9v7.7l-6.7,3.9L0,11.9V4.2
			L6.7,0.3z"/>
	</g>
	<g id="Group_548" transform="translate(44.336 60.063)" class="st4">
		<path id="Path_370" class="st1" d="M36.8,1.4L1,22.1v41.3l35.8,20.7l35.8-20.7V22.1L36.8,1.4 M36.8,0.3l36.8,21.2V64L36.8,85.2
			L0,64V21.5L36.8,0.3L36.8,0.3z"/>
	</g>
	<g id="Group_550" transform="translate(116.915 62.697)" class="st4">
		<path id="Path_372" class="st1" d="M27.2,1.1L0.7,16.4V47l26.5,15.3L53.7,47V16.4L27.2,1.1 M27.2,0.3L54.5,16v31.5L27.2,63.2
			L0,47.5V16L27.2,0.3L27.2,0.3z"/>
	</g>
</g>
</svg>
