<svg xmlns="http://www.w3.org/2000/svg" xmlns:xlink="http://www.w3.org/1999/xlink" width="394" height="264" viewBox="0 0 394 264">
  <defs>
    <clipPath id="clip-path">
      <rect id="Rectangle_87796" data-name="Rectangle 87796" width="394" height="264" transform="translate(972 1227)" fill="#fff"/>
    </clipPath>
  </defs>
  <g id="Mask_Group_215" data-name="Mask Group 215" transform="translate(-972 -1227)" clip-path="url(#clip-path)">
    <g id="Group_589" data-name="Group 589" transform="translate(994 1343.141)" opacity="0.1" style="isolation: isolate">
      <g id="Group_565" data-name="Group 565" transform="translate(0 0)">
        <path id="Path_373" data-name="Path 373" d="M144.1,330.772l33.312-19.231,33.309,19.231v38.463L177.41,388.466,144.1,369.235Z" transform="translate(124.12 -149.025)" fill="#1294a6" opacity="0.6"/>
        <path id="Path_374" data-name="Path 374" d="M39.395,278.355l18.812-10.861,18.814,10.861v21.723l-18.814,10.86-18.812-10.86Z" transform="translate(-39.395 -217.812)" fill="#1294a6" opacity="0.6"/>
        <g id="Group_552" data-name="Group 552" transform="translate(302.752 -18.244)" opacity="0.6">
          <path id="Path_375" data-name="Path 375" d="M217.321,259.01l11.689,6.75v13.5l-11.689,6.748-11.692-6.748v-13.5l11.692-6.75m0-1.637L204.21,264.94v15.135l13.111,7.567,13.108-7.567V264.94l-13.108-7.567Z" transform="translate(-204.21 -257.373)" fill="#1294a6"/>
        </g>
        <g id="Group_553" data-name="Group 553" transform="translate(301.528 32.951)" opacity="0.146">
          <path id="Path_376" data-name="Path 376" d="M221.2,268.973l57.162,33v65.995l-57.162,33-57.157-33V301.973l57.157-33m0-8.01-64.1,37v74.008l64.1,37,64.1-37V297.967l-64.1-37Z" transform="translate(-157.101 -260.963)" fill="#1294a6"/>
        </g>
        <path id="Path_377" data-name="Path 377" d="M92.738,277.342l36.781-21.23,36.777,21.23v42.464l-36.777,21.23-36.781-21.23Z" transform="translate(43.912 -235.589)" fill="#1294a6" style="mix-blend-mode: color-dodge;isolation: isolate"/>
        <path id="Path_378" data-name="Path 378" d="M114.16,259.015l9.169-5.295,9.171,5.295V269.6l-9.171,5.295L114.16,269.6Z" transform="translate(77.366 -239.323)" fill="#1294a6" style="mix-blend-mode: overlay;isolation: isolate"/>
        <path id="Path_379" data-name="Path 379" d="M247.225,307.693,282.02,287.6l34.8,20.092v40.186l-34.8,20.091-34.794-20.091Z" transform="translate(285.174 -186.412)" fill="#1294a6" opacity="0.177" style="mix-blend-mode: overlay;isolation: isolate"/>
        <g id="Group_554" data-name="Group 554" transform="translate(120.086 159.497)" style="mix-blend-mode: overlay;isolation: isolate">
          <path id="Path_380" data-name="Path 380" d="M89.359,310.749l2.754,1.588v3.179L89.359,317.1l-2.751-1.588v-3.179l2.751-1.588m0-.387-3.087,1.783v3.563l3.087,1.78,3.087-1.78v-3.563l-3.087-1.783Z" transform="translate(-86.272 -310.362)" fill="#1294a6"/>
        </g>
        <path id="Path_381" data-name="Path 381" d="M110.848,303.862l34.047-19.655,34.047,19.655v39.31l-34.047,19.656-34.047-19.656Z" transform="translate(72.194 -191.713)" fill="#1294a6" opacity="0.479" style="mix-blend-mode: overlay;isolation: isolate"/>
        <g id="Group_555" data-name="Group 555" transform="translate(281.378 -27.76)" style="mix-blend-mode: overlay;isolation: isolate">
          <path id="Path_382" data-name="Path 382" d="M179.3,257.272l7.352,4.242V270l-7.352,4.245L171.951,270v-8.487l7.349-4.242m0-1.03L171.059,261v9.517l8.241,4.76,8.244-4.76V261l-8.244-4.757Z" transform="translate(-171.059 -256.242)" fill="#1294a6"/>
        </g>
        <g id="Group_556" data-name="Group 556" transform="translate(18.314 149.45)" style="mix-blend-mode: color-dodge;isolation: isolate">
          <path id="Path_383" data-name="Path 383" d="M50.192,306.9l3.253,1.878v3.758l-3.253,1.878-3.253-1.878v-3.758l3.253-1.878m0-.456-3.648,2.106v4.214l3.648,2.106,3.648-2.106v-4.214l-3.648-2.106Z" transform="translate(-46.544 -306.44)" fill="#1294a6"/>
        </g>
        <g id="Group_557" data-name="Group 557" transform="translate(343.574 -128.71)" style="mix-blend-mode: color-dodge;isolation: isolate">
          <path id="Path_384" data-name="Path 384" d="M245.018,257.951l2.636,1.522v3.046l-2.636,1.524-2.636-1.524v-3.046l2.636-1.522m0-.369-2.956,1.706V262.7l2.956,1.709,2.956-1.709v-3.415l-2.956-1.706Z" transform="translate(-242.062 -257.582)" fill="#1294a6"/>
        </g>
        <path id="Path_385" data-name="Path 385" d="M77.858,298.329l40.763-23.53,40.755,23.53v47.061L118.621,368.92,77.858,345.389Z" transform="translate(20.674 -206.404)" fill="#1294a6" opacity="0.3" style="mix-blend-mode: color-dodge;isolation: isolate"/>
        <g id="Group_558" data-name="Group 558" transform="translate(37.445 82.169)" opacity="0.6">
          <path id="Path_386" data-name="Path 386" d="M90.5,281.316l35.495,20.493v40.982L90.5,363.293,55,342.792V301.809l35.5-20.493m0-1.14L54.012,301.238v42.125L90.5,364.433l36.481-21.07V301.238L90.5,280.176Z" transform="translate(-54.012 -280.176)" fill="#1294a6"/>
        </g>
        <g id="Group_559" data-name="Group 559" transform="translate(52.277)" opacity="0.6">
          <path id="Path_387" data-name="Path 387" d="M96.614,249.25l35.813,20.675v41.351L96.614,331.96,60.8,311.277V269.926L96.614,249.25m0-1.15L59.8,269.352v42.5l36.812,21.26,36.809-21.26v-42.5L96.614,248.1Z" transform="translate(-59.802 -248.1)" fill="#1294a6"/>
        </g>
        <g id="Group_560" data-name="Group 560" transform="translate(641.086 122.841)" style="mix-blend-mode: overlay;isolation: isolate">
          <path id="Path_388" data-name="Path 388" d="M296.79,296.278l6.947,4.009v8.018l-6.947,4.009-6.945-4.009v-8.018l6.945-4.009m0-.225-7.137,4.122v8.244l7.137,4.122,7.139-4.122v-8.244l-7.139-4.122Z" transform="translate(-289.653 -296.053)" fill="#1294a6"/>
        </g>
        <g id="Group_561" data-name="Group 561" transform="translate(454.06 -145.061)" style="mix-blend-mode: overlay;isolation: isolate">
          <path id="Path_389" data-name="Path 389" d="M324.358,252.424l38.113,22v44.007l-38.113,22-38.105-22V274.426l38.105-22m0-1.225-39.166,22.615v45.232l39.166,22.615,39.174-22.615V273.814L324.358,251.2Z" transform="translate(-285.192 -251.199)" fill="#1294a6"/>
        </g>
        <g id="Group_562" data-name="Group 562" transform="translate(314.174 -105.816)" style="mix-blend-mode: overlay;isolation: isolate">
          <path id="Path_390" data-name="Path 390" d="M282.3,255.4l54.874,31.68v63.359L282.3,382.119l-54.877-31.681V287.08L282.3,255.4m0-1.762L225.9,286.2V351.32l56.4,32.562,56.4-32.562V286.2l-56.4-32.562Z" transform="translate(-225.901 -253.637)" fill="#1294a6"/>
        </g>
        <g id="Group_563" data-name="Group 563" transform="translate(396.266 -142.259)" style="mix-blend-mode: color-dodge;isolation: isolate">
          <path id="Path_391" data-name="Path 391" d="M291.624,253.2l28.217,16.295v32.58l-28.217,16.287-28.209-16.287v-32.58L291.624,253.2m0-.907-28.993,16.748v33.487l28.993,16.741,29-16.741V269.041l-29-16.748Z" transform="translate(-262.631 -252.293)" fill="#1294a6"/>
        </g>
        <g id="Group_564" data-name="Group 564" transform="translate(265.037 43.508)" opacity="0.3" style="mix-blend-mode: color-dodge;isolation: isolate">
          <path id="Path_392" data-name="Path 392" d="M146.4,265.194l3.453,1.993v3.986l-3.453,1.99-3.451-1.99v-3.986l3.451-1.993m0-.11-3.548,2.047v4.1l3.548,2.047,3.548-2.047v-4.1l-3.548-2.047Z" transform="translate(-142.856 -265.084)" fill="#1294a6"/>
        </g>
      </g>
      <g id="Group_570" data-name="Group 570" transform="translate(35.363 99.891)" opacity="0.3">
        <path id="Path_393" data-name="Path 393" d="M85.728,332.314l28.115-16.233,28.12,16.233v32.468l-28.12,16.231L85.728,364.782Z" transform="translate(-2.399 -241.825)" fill="#1294a6" opacity="0.6"/>
        <path id="Path_394" data-name="Path 394" d="M165.455,330.8l54.973-31.73,54.966,31.73v63.467L220.428,426l-54.973-31.731Z" transform="translate(122.111 -268.393)" fill="#1294a6" style="mix-blend-mode: color-dodge;isolation: isolate"/>
        <path id="Path_395" data-name="Path 395" d="M197.472,303.408l13.7-7.914,13.708,7.914v15.823l-13.708,7.914-13.7-7.914Z" transform="translate(172.112 -273.976)" fill="#1294a6" style="mix-blend-mode: overlay;isolation: isolate"/>
        <g id="Group_566" data-name="Group 566" transform="translate(587.433 31.176)" style="mix-blend-mode: overlay;isolation: isolate">
          <path id="Path_396" data-name="Path 396" d="M294.83,300.8l10.987,6.34v12.683l-10.987,6.345-10.982-6.345V307.144l10.982-6.34m0-1.54-12.317,7.111V320.6l12.317,7.116,12.322-7.116v-14.22l-12.322-7.111Z" transform="translate(-282.513 -299.264)" fill="#1294a6"/>
        </g>
        <g id="Group_567" data-name="Group 567" transform="translate(161.464)" opacity="0.6">
          <path id="Path_397" data-name="Path 397" d="M171.247,288.815l53.524,30.9v61.806l-53.524,30.912-53.529-30.912V319.715l53.529-30.9m0-1.721-55.018,31.763v63.522l55.018,31.773,55.012-31.773V318.857l-55.012-31.763Z" transform="translate(-116.229 -287.094)" fill="#1294a6"/>
        </g>
        <g id="Group_568" data-name="Group 568" transform="translate(0 30.323)" opacity="0.3" style="mix-blend-mode: color-dodge;isolation: isolate">
          <path id="Path_398" data-name="Path 398" d="M62.416,299.218l8.971,5.18v10.357l-8.971,5.177-8.966-5.177V304.4l8.966-5.18m0-.287L53.2,304.252V314.9l9.217,5.321,9.22-5.321V304.252l-9.22-5.321Z" transform="translate(-53.199 -298.931)" fill="#1294a6"/>
        </g>
        <g id="Group_569" data-name="Group 569" transform="translate(479.452 65.029)" opacity="0.3" style="mix-blend-mode: color-dodge;isolation: isolate">
          <path id="Path_399" data-name="Path 399" d="M245.664,312.643l5.162,2.979v5.956l-5.162,2.977-5.159-2.977v-5.956l5.159-2.979m0-.164-5.3,3.059v6.122l5.3,3.059,5.305-3.059v-6.122l-5.305-3.059Z" transform="translate(-240.361 -312.479)" fill="#1294a6"/>
        </g>
      </g>
    </g>
  </g>
</svg>
