<?xml version="1.0" encoding="utf-8"?>
<!-- Generator: Adobe Illustrator 25.3.1, SVG Export Plug-In . SVG Version: 6.00 Build 0)  -->
<svg version="1.1" id="Layer_1" xmlns="http://www.w3.org/2000/svg" xmlns:xlink="http://www.w3.org/1999/xlink" x="0px" y="0px"
	 width="381.9px" height="217.2px" viewBox="0 0 381.9 217.2" style="enable-background:new 0 0 381.9 217.2;" xml:space="preserve"
	>
<style type="text/css">
	.st0{opacity:0.3;}
	.st1{opacity:0.6;}
	.st2{fill:#FFFFFF;}
	.st3{opacity:0.5;}
</style>
<g id="Group_50067_2_" class="st0">
	<g id="Group_534_3_" transform="translate(19.517 8.683)" class="st1">
		<path id="Path_354_3_" class="st2" d="M3.1,0.4L5.8,2v3.2L3.1,6.8L0.3,5.2V2L3.1,0.4 M3.1,0L0,1.8v3.6l3.1,1.8l3.1-1.8V1.8L3.1,0z
			"/>
	</g>
	<path id="Path_355_3_" class="st2" d="M87,5.3L91,3l4,2.3v4.6l-4,2.3l-4-2.3V5.3z"/>
	<path id="Path_356_3_" class="st2" d="M0,88.8l2.1-1.2l2.1,1.2v2.5l-2.1,1.2L0,91.3V88.8z"/>
	<g id="Group_535_3_" transform="translate(224.935 14.695)">
		<path id="Path_357_3_" class="st2" d="M11.3,1.4l10.1,5.8v11.6l-10.1,5.8L1.2,18.8V7.2L11.3,1.4 M11.3,0L0,6.5v13l11.3,6.5
			l11.3-6.5v-13L11.3,0z"/>
	</g>
	<g id="Group_536_3_" transform="translate(186.724 3.454)" class="st3">
		<path id="Path_358_3_" class="st2" d="M6,0.8l5.4,3.1v6.2L6,13.2l-5.4-3.1V3.9L6,0.8 M6,0L0,3.5v7l6,3.5l6-3.5v-7L6,0z"/>
	</g>
	<g id="Group_537_2_" transform="translate(9.432 33.795)" class="st1">
		<path id="Path_359_2_" class="st2" d="M26.2,3.3l23.4,13.5v27L26.2,57.3L2.8,43.8v-27L26.2,3.3 M26.2,0L0,15.1v30.3l26.2,15.1
			l26.2-15.1V15.1L26.2,0L26.2,0z"/>
	</g>
	<g id="Group_538_3_" transform="translate(42.051 0)" class="st0">
		<path id="Path_360_3_" class="st2" d="M39.8,5l35.5,20.5v40.9L39.8,86.9L4.3,66.4V25.4L39.8,5 M39.8,0L0,23v45.9l39.8,23l39.8-23
			V23L39.8,0z"/>
	</g>
	<g id="Group_539_3_" transform="translate(144.997 27.075)" class="st1">
		<path id="Path_361_3_" class="st2" d="M5,0.2l4.8,2.8v5.6L5,11.3L0.1,8.5V2.9L5,0.2 M5,0L0,2.9v5.7l5,2.9l5-2.9V2.9L5,0z"/>
	</g>
	<g id="Group_540_3_" transform="translate(150.084 90.475)">
		<path id="Path_362_3_" class="st2" d="M3.5,0.1l3.4,1.9v3.9L3.5,7.9L0.1,5.9V2.1L3.5,0.1 M3.5,0L0,2v4l3.5,2l3.5-2V2L3.5,0z"/>
	</g>
	<g id="Group_541_3_" transform="translate(248.342 82.628)">
		<path id="Path_363_3_" class="st2" d="M2.5,0.1l2.4,1.4v2.8L2.5,5.6L0.1,4.2V1.5L2.5,0.1 M2.5,0L0,1.4v2.9l2.5,1.4l2.5-1.4V1.4
			L2.5,0z"/>
	</g>
	<g id="Group_542_3_" transform="translate(174.542 46.987)" class="st3">
		<path id="Path_364_3_" class="st2" d="M31.3,1l30.5,17.6v35.2L31.3,71.4L0.8,53.8V18.6L31.3,1 M31.3,0L0,18.1v36.2l31.3,18.1
			l31.3-18.1V18.1L31.3,0L31.3,0z"/>
	</g>
	<g id="Group_543_2_" transform="translate(71.648 57.204)">
		<path id="Path_365_2_" class="st2" d="M27.2,0.9l26.5,15.3v30.6L27.2,62L0.7,46.7V16.1L27.2,0.9 M27.2,0L0,15.7v31.4l27.2,15.7
			l27.2-15.7V15.7L27.2,0z"/>
	</g>
	<g id="Group_544_2_" transform="translate(21.976 86.435)" class="st1">
		<path id="Path_366_2_" class="st2" d="M14.2,1.8l12.7,7.3v14.6L14.2,31L1.5,23.7V9.1L14.2,1.8 M14.2,0L0,8.2v16.4l14.2,8.2
			l14.2-8.2V8.2L14.2,0z"/>
	</g>
	<g id="Group_545_3_" transform="translate(373.195 91.199)" class="st1">
		<path id="Path_367_3_" class="st2" d="M4.6,0.6l3.6,2.1V8l-3.6,2.1L0.5,7.7V3L4.6,0.6 M4.6,0L0,2.7V8l4.6,2.7l4.1-2.3v-6L4.6,0
			L4.6,0z"/>
	</g>
	<g id="Group_546_3_" transform="translate(127.046 87.014)">
		<path id="Path_368_3_" class="st2" d="M3.2,0.4L6.1,2v3.3L3.2,7L0.3,5.4V2.1L3.2,0.4 M3.2,0L0,1.9v3.7l3.2,1.9l3.2-1.9V1.9L3.2,0z
			"/>
	</g>
	<g id="Group_547_3_" transform="translate(259.155 193.809)">
		<path id="Path_369_3_" class="st2" d="M7.7,0.2l7.5,4.3v8.7l-7.5,4.3l-7.5-4.3V4.6L7.7,0.2 M7.7,0L0,4.5v8.9l7.7,4.5l7.7-4.5V4.5
			L7.7,0z"/>
	</g>
	<g id="Group_548_3_" transform="translate(246.767 69.298)">
		<path id="Path_370_3_" class="st2" d="M42.4,1.3l41.3,23.8v47.7L42.4,96.7L1.1,72.9V25.2L42.4,1.3 M42.4,0L0,24.5v49L42.4,98
			l42.5-24.5v-49L42.4,0L42.4,0z"/>
	</g>
	<g id="Group_549_2_" transform="translate(82.186 76.066)" class="st1">
		<path id="Path_371_2_" class="st2" d="M61.1,1.9l59.5,34.3v68.7l-59.5,34.3L1.7,104.9V36.2L61.1,1.9 M61.1,0L0,35.3v70.6
			l61.1,35.3l61.1-35.3V35.3L61.1,0z"/>
	</g>
	<g id="Group_550_3_" transform="translate(184.144 72.337)">
		<path id="Path_372_3_" class="st2" d="M31.4,1L62,18.6v35.3L31.4,71.6L0.8,53.9V18.6L31.4,1 M31.4,0L0,18.1v36.3l31.4,18.1
			l31.4-18.1V18.1L31.4,0L31.4,0z"/>
	</g>
</g>
</svg>
