<?xml version="1.0" encoding="utf-8"?>
<!-- Generator: Adobe Illustrator 25.3.1, SVG Export Plug-In . SVG Version: 6.00 Build 0)  -->
<svg version="1.1" id="Layer_1" xmlns="http://www.w3.org/2000/svg" xmlns:xlink="http://www.w3.org/1999/xlink" x="0px" y="0px"
	 width="381.9px" height="217.2px" viewBox="0 0 381.9 217.2" style="enable-background:new 0 0 381.9 217.2;" xml:space="preserve"
	>
<style type="text/css">
	.st0{opacity:0.3;}
	.st1{opacity:0.6;}
	.st2{fill:#FFFFFF;}
	.st3{opacity:0.2;}
	.st4{opacity:0.5;}
</style>
<g id="Group_50068_1_" class="st0">
	<g id="Group_534_1_" transform="translate(19.517 8.683)" class="st1">
		<path id="Path_354_1_" class="st2" d="M339.7,199.4l-2.8-1.6v-3.2l2.8-1.6l2.8,1.6v3.2L339.7,199.4 M339.7,199.8l3.1-1.8v-3.6
			l-3.1-1.8l-3.1,1.8v3.6L339.7,199.8z"/>
	</g>
	<path id="Path_355_1_" class="st2" d="M294.9,211.9l-4,2.3l-4-2.3v-4.6l4-2.3l4,2.3V211.9z"/>
	<path id="Path_356_1_" class="st2" d="M381.9,128.4l-2.1,1.2l-2.1-1.2v-2.5l2.1-1.2l2.1,1.2V128.4z"/>
	<g id="Group_535_1_" transform="translate(224.935 14.695)">
		<path id="Path_357_1_" class="st2" d="M-79.3,186.4l-10.1-5.8V169l10.1-5.8l10.1,5.8v11.6L-79.3,186.4 M-79.3,187.8l11.3-6.5v-13
			l-11.3-6.5l-11.3,6.5v13L-79.3,187.8z"/>
	</g>
	<g id="Group_536_1_" transform="translate(186.724 3.454)">
		<path id="Path_358_1_" class="st2" d="M2.4,209.5l-5.4-3.1v-6.2l5.4-3.1l5.4,3.1v6.2L2.4,209.5 M2.4,210.3l6-3.5v-7l-6-3.5l-6,3.5
			v7L2.4,210.3z"/>
	</g>
	<g id="Group_537_1_" transform="translate(9.432 33.795)" class="st1">
		<path id="Path_359_1_" class="st2" d="M336.8,146.3l-23.4-13.5v-27l23.4-13.5l23.4,13.5v27L336.8,146.3 M336.8,149.6l26.2-15.1
			v-30.3l-26.2-15.1l-26.2,15.1v30.3L336.8,149.6L336.8,149.6z"/>
	</g>
	<g id="Group_538_1_" transform="translate(42.051 0)" class="st3">
		<path id="Path_360_1_" class="st2" d="M258,212.2l-35.5-20.5v-40.9l35.5-20.5l35.5,20.5v40.9L258,212.2 M258,217.2l39.8-23v-45.9
			l-39.8-23l-39.8,23v45.9L258,217.2z"/>
	</g>
	<g id="Group_539_1_" transform="translate(144.997 27.075)" class="st1">
		<path id="Path_361_1_" class="st2" d="M86.9,162.9l-4.8-2.8v-5.6l4.8-2.8l4.8,2.8v5.6L86.9,162.9 M86.9,163l5-2.9v-5.7l-5-2.9
			l-5,2.9v5.7L86.9,163z"/>
	</g>
	<g id="Group_540_1_" transform="translate(150.084 90.475)">
		<path id="Path_362_1_" class="st2" d="M78.2,36.1l-3.4-1.9v-3.9l3.4-1.9l3.4,1.9v3.9L78.2,36.1 M78.2,36.2l3.5-2v-4l-3.5-2l-3.5,2
			v4L78.2,36.2z"/>
	</g>
	<g id="Group_541_1_" transform="translate(248.342 82.628)">
		<path id="Path_363_1_" class="st2" d="M-117.3,51.9l-2.4-1.4v-2.8l2.4-1.4l2.4,1.4v2.8L-117.3,51.9 M-117.3,51.9l2.5-1.4v-2.9
			l-2.5-1.4l-2.5,1.4v2.9L-117.3,51.9z"/>
	</g>
	<g id="Group_542_1_" transform="translate(174.542 46.987)" class="st4">
		<path id="Path_364_1_" class="st2" d="M1.5,122.2L-29,104.6V69.4L1.5,51.8l30.5,17.6v35.2L1.5,122.2 M1.5,123.2l31.3-18.1V69
			L1.5,50.9L-29.9,69v36.2L1.5,123.2L1.5,123.2z"/>
	</g>
	<g id="Group_543_1_" transform="translate(71.648 57.204)">
		<path id="Path_365_1_" class="st2" d="M211.4,101.9l-26.5-15.3V56.1l26.5-15.3l26.5,15.3v30.6L211.4,101.9 M211.4,102.8l27.2-15.7
			V55.7L211.4,40l-27.2,15.7v31.4L211.4,102.8z"/>
	</g>
	<g id="Group_544_1_" transform="translate(21.976 86.435)" class="st1">
		<path id="Path_366_1_" class="st2" d="M323.7,42.6l-12.7-7.3V20.6l12.7-7.3l12.7,7.3v14.6L323.7,42.6 M323.7,44.3l14.2-8.2V19.7
			l-14.2-8.2l-14.2,8.2v16.4L323.7,44.3z"/>
	</g>
	<g id="Group_545_1_" transform="translate(373.195 91.199)" class="st1">
		<path id="Path_367_1_" class="st2" d="M-369.1,34.2l-3.6-2.1v-5.4l3.6-2.1l4.1,2.4v4.8L-369.1,34.2 M-369.1,34.8l4.6-2.7v-5.3
			l-4.6-2.7l-4.1,2.3v6L-369.1,34.8L-369.1,34.8z"/>
	</g>
	<g id="Group_546_1_" transform="translate(127.046 87.014)">
		<path id="Path_368_1_" class="st2" d="M124.6,42.8l-2.9-1.6v-3.3l2.9-1.7l2.9,1.6v3.3L124.6,42.8 M124.6,43.2l3.2-1.9v-3.7
			l-3.2-1.9l-3.2,1.9v3.7L124.6,43.2z"/>
	</g>
	<g id="Group_547_1_" transform="translate(259.155 193.809)">
		<path id="Path_369_1_" class="st2" d="M-144.2-170.7l-7.5-4.3v-8.7l7.5-4.3l7.5,4.3v8.7L-144.2-170.7 M-144.2-170.4l7.7-4.5v-8.9
			l-7.7-4.5l-7.7,4.5v8.9L-144.2-170.4z"/>
	</g>
	<g id="Group_548_1_" transform="translate(246.767 69.298)">
		<path id="Path_370_1_" class="st2" d="M-154.1,77.3l-41.3-23.8V5.7l41.3-23.8l41.3,23.8v47.7L-154.1,77.3 M-154.1,78.6l42.4-24.5
			v-49l-42.4-24.5l-42.5,24.5v49L-154.1,78.6L-154.1,78.6z"/>
	</g>
	<g id="Group_549_1_" transform="translate(82.186 76.066)">
		<path id="Path_371_1_" class="st2" d="M156.4,63.2L96.9,28.8v-68.7l59.5-34.3l59.5,34.3v68.7L156.4,63.2 M156.4,65.1l61.1-35.3
			v-70.6l-61.1-35.3L95.3-40.8v70.6L156.4,65.1z"/>
	</g>
	<g id="Group_550_1_" transform="translate(184.144 72.337)">
		<path id="Path_372_1_" class="st2" d="M-17.8,71.5l-30.6-17.7V18.6l30.6-17.7l30.6,17.6v35.3L-17.8,71.5 M-17.8,72.5l31.4-18.1
			V18.1L-17.8,0l-31.4,18.1v36.3L-17.8,72.5L-17.8,72.5z"/>
	</g>
</g>
</svg>
